# xmcd
#
# Track frame offsets: 
#        150
#        15308
#        30871
#        44851
#        61757
#        79587
#        92773
#        110783
#        126061
#        147304
#        163992
#        178603
#        195003
#        220366
#
# Disc length: 3235 seconds
#
# Revision: 0
# Processed by: cddbd v1.5PL3 Copyright (c) Steve Scherf et al.
# Submitted via: ExactAudioCopy v0.95a2
#
DISCID=b80ca10e
DTITLE=Max Raabe und sein Palastorchester - Die Hits des Jahres
DYEAR=1900
DGENRE=Vocal
TTITLE0=Around the world
TTITLE1=Lucky
TTITLE2=Sex Bomb
TTITLE3=Mein Stern
TTITLE4=Super Trouper
TTITLE5=We Will Rock You
TTITLE6=Blue
TTITLE7=Isch liebe disch
TTITLE8=Irgendwie, irgendwo, irgendwann
TTITLE9=Ooops...! I Did It Again
TTITLE10=Bongo Bong
TTITLE11=Mambo No.5
TTITLE12=Around the world (Dance Remix)
TTITLE13=Blue (Dance Remix)
EXTD=
EXTT0=
EXTT1=
EXTT2=
EXTT3=
EXTT4=
EXTT5=
EXTT6=
EXTT7=
EXTT8=
EXTT9=
EXTT10=
EXTT11=
EXTT12=
EXTT13=
PLAYORDER=
